<?xml version="1.0" standalone="no"?>
<!DOCTYPE svg PUBLIC "-//W3C//DTD SVG 20010904//EN"
 "http://www.w3.org/TR/2001/REC-SVG-20010904/DTD/svg10.dtd">
<svg version="1.0" xmlns="http://www.w3.org/2000/svg"
 width="1024.000000pt" height="1024.000000pt" viewBox="0 0 1024.000000 1024.000000"
 preserveAspectRatio="xMidYMid meet">
<metadata>
Created by potrace 1.14, written by Peter Selinger 2001-2017
</metadata>
<g transform="translate(0.000000,1024.000000) scale(0.100000,-0.100000)"
fill="#000000" stroke="none">
<path d="M5070 10220 c0 -11 -5 -20 -11 -20 -5 0 -8 -4 -4 -9 3 -5 1 -12 -5
-16 -6 -4 -8 -11 -5 -16 4 -5 2 -9 -3 -9 -5 0 -12 -12 -15 -27 -3 -16 -15 -38
-27 -50 -11 -13 -18 -23 -16 -23 10 0 -37 -84 -66 -120 -15 -19 -28 -40 -28
-47 0 -7 -4 -13 -9 -13 -5 0 -11 -10 -15 -22 -3 -13 -5 -23 -4 -23 1 0 -5 -11
-12 -25 -16 -29 -20 -50 -20 -102 0 -20 -5 -40 -10 -43 -6 -3 -10 -2 -10 4 0
12 -114 10 -126 -2 -4 -4 -16 -7 -26 -7 -10 0 -18 -4 -18 -10 0 -5 -6 -10 -12
-10 -7 0 -22 -12 -33 -25 -11 -14 -29 -36 -41 -48 -11 -13 -20 -31 -18 -40 1
-9 -1 -17 -4 -17 -8 0 -35 -58 -37 -80 -1 -8 -7 -25 -13 -37 -7 -12 -8 -24 -3
-27 5 -3 7 -14 4 -25 -2 -10 6 -40 18 -67 13 -27 24 -51 24 -54 6 -22 30 -60
42 -65 9 -3 30 8 48 24 19 16 43 32 54 36 12 3 21 9 21 13 0 4 20 7 45 7 25 0
45 -3 45 -7 0 -5 7 -8 15 -8 50 0 112 -79 110 -140 0 -8 6 -20 14 -26 10 -8
11 -13 2 -18 -8 -5 -8 -13 0 -28 6 -12 13 -73 14 -137 1 -64 4 -116 5 -116 2
0 5 -27 7 -60 1 -33 6 -82 9 -110 3 -27 5 -58 5 -67 0 -10 4 -20 9 -23 5 -3 7
-12 3 -20 -3 -8 0 -15 7 -15 6 0 9 -4 5 -9 -3 -5 2 -17 11 -25 8 -9 12 -16 8
-16 -3 0 -1 -7 6 -15 9 -11 10 -19 1 -28 -6 -8 -14 -31 -19 -53 -7 -33 -4 -45
15 -73 28 -41 29 -72 3 -88 -16 -11 -21 -10 -29 5 -6 9 -11 14 -11 11 0 -4
-16 -3 -35 1 -20 4 -35 4 -35 -1 0 -5 -6 -9 -13 -9 -26 0 -42 -34 -39 -84 2
-27 1 -59 -2 -70 -10 -40 -96 -57 -96 -20 0 8 -4 14 -9 14 -18 0 -29 105 -16
160 8 36 35 101 46 110 9 7 40 69 38 76 0 4 3 10 8 13 19 12 42 72 37 96 -2
14 0 25 6 25 6 0 10 44 10 118 0 102 -3 123 -22 162 -13 24 -27 49 -33 55 -13
13 -107 61 -116 58 -3 -1 -17 9 -29 22 -13 14 -29 25 -37 25 -7 0 -13 4 -13 9
0 20 -71 -3 -149 -50 -35 -20 -111 -94 -111 -108 0 -6 -4 -11 -9 -11 -6 0 -9
-44 -8 -103 2 -106 15 -142 69 -201 18 -19 13 -36 -21 -78 -8 -10 -11 -18 -7
-18 4 0 -17 -25 -47 -55 -40 -41 -65 -58 -91 -62 -20 -3 -36 -8 -36 -12 0 -3
-27 -7 -60 -8 -33 0 -60 2 -60 6 0 4 -16 8 -36 9 -20 2 -45 7 -54 12 -10 5
-20 6 -24 3 -3 -3 -6 -1 -6 6 0 7 -4 9 -10 6 -5 -3 -10 -1 -10 4 0 6 -6 11
-13 11 -16 0 -57 42 -57 58 0 6 -8 15 -17 21 -10 5 -15 12 -11 16 3 4 -1 15
-10 25 -9 11 -17 32 -18 47 -4 70 -31 96 -64 63 -11 -11 -22 -20 -25 -20 -3 0
-9 0 -15 0 -9 0 -79 -71 -92 -95 -4 -7 -9 -21 -11 -31 -1 -11 -5 -23 -8 -29
-5 -9 -4 -32 1 -37 1 -2 3 -14 4 -28 0 -14 9 -38 19 -53 9 -15 14 -27 10 -27
-5 0 -3 -4 2 -8 6 -4 17 -21 27 -39 14 -28 14 -32 1 -37 -24 -10 -93 -7 -93 4
0 5 -6 7 -12 5 -12 -5 -108 74 -108 88 0 4 -16 24 -35 44 -19 20 -35 42 -35
48 0 5 -7 23 -15 39 -10 18 -13 37 -8 50 4 12 8 26 9 31 2 15 23 68 34 85 6 8
14 24 19 35 9 21 32 44 41 42 14 -3 57 47 53 61 -7 25 -120 76 -173 78 -57 2
-141 -21 -170 -46 -28 -25 -39 -25 -46 -2 -3 9 -10 25 -15 34 -5 10 -5 19 0
23 5 3 12 23 16 46 4 22 13 43 20 45 7 3 16 15 19 27 8 33 73 99 99 102 12 1
36 -9 54 -22 17 -13 36 -23 41 -23 6 0 24 -13 41 -29 l32 -30 19 22 c19 20 24
32 21 50 0 4 3 7 8 7 5 0 9 31 10 70 1 68 0 70 -42 113 -50 53 -75 67 -135 76
-41 5 -45 8 -47 36 -5 60 -15 82 -55 121 -8 8 -39 37 -67 64 -29 27 -53 51
-53 54 0 3 -4 15 -9 28 -5 13 -10 28 -11 33 -3 15 -21 35 -32 35 -6 0 -8 -7
-4 -15 3 -8 2 -15 -3 -15 -5 0 -12 -16 -15 -35 -4 -19 -11 -35 -16 -35 -5 0
-11 -9 -15 -20 -3 -10 -21 -34 -39 -52 -18 -18 -35 -41 -39 -50 -3 -10 -11
-18 -17 -18 -5 0 -10 -15 -10 -34 0 -41 -15 -54 -60 -51 -19 1 -44 -3 -54 -9
-30 -17 -76 -65 -76 -79 0 -7 -5 -18 -12 -25 -9 -9 -9 -12 0 -12 7 0 11 -14
10 -35 -1 -19 -6 -35 -11 -35 -5 0 -4 -7 3 -15 7 -8 9 -15 4 -15 -5 0 -1 -5 8
-11 10 -5 15 -16 12 -24 -4 -8 -1 -15 6 -15 6 0 9 -4 6 -9 -3 -4 6 -19 19 -31
14 -13 25 -29 25 -36 0 -6 7 -17 15 -24 8 -7 12 -16 9 -21 -3 -5 -1 -9 4 -9 5
0 10 -20 10 -45 1 -27 -3 -45 -10 -45 -6 0 -9 -2 -6 -5 3 -3 -1 -31 -9 -63 -8
-31 -15 -66 -14 -77 0 -10 -5 -25 -11 -32 -5 -7 -8 -20 -4 -28 9 -24 -44 -23
-82 2 -13 8 -26 12 -29 9 -4 -3 -13 0 -21 6 -8 7 -21 13 -30 14 -17 3 -55 19
-82 35 -8 5 -26 15 -40 21 -35 17 -133 81 -145 94 -12 13 -59 26 -67 18 -3 -3
-2 -20 2 -38 4 -19 4 -40 0 -47 -5 -7 -4 -23 1 -36 8 -21 6 -23 -27 -23 -19 0
-33 4 -30 8 3 5 0 9 -7 10 -7 0 -30 4 -52 8 -22 4 -65 8 -95 7 -49 0 -79 -3
-170 -15 -14 -2 -33 -10 -43 -19 -10 -10 -26 -16 -35 -14 -9 1 -19 -1 -22 -4
-9 -11 -123 -64 -137 -64 -7 0 -13 -4 -13 -9 0 -4 -3 -7 -7 -6 -5 0 -17 -2
-28 -6 -11 -4 -33 -13 -50 -19 -16 -6 -34 -13 -40 -14 -5 -1 -28 -7 -50 -13
-22 -6 -44 -12 -50 -13 -35 -8 -47 -37 -16 -37 10 0 24 -7 31 -15 7 -9 15 -13
18 -11 6 6 32 -20 32 -32 0 -10 -60 -66 -98 -91 -11 -8 -23 -23 -25 -33 -3
-10 -12 -18 -21 -18 -9 0 -16 -5 -16 -11 0 -9 -58 -94 -98 -144 -9 -11 -13
-20 -20 -47 -2 -10 -9 -18 -15 -18 -6 0 -7 -3 -4 -7 4 -3 3 -11 -1 -17 -5 -6
-15 -38 -22 -71 -7 -33 -16 -64 -20 -70 -3 -5 -6 -22 -5 -37 0 -16 -3 -28 -7
-28 -4 0 -8 -24 -8 -52 0 -36 -7 -64 -21 -87 -16 -27 -60 -129 -64 -151 -1 -3
-9 -23 -19 -45 -10 -22 -19 -47 -20 -55 -2 -15 -4 -20 -26 -80 -31 -86 -53
-179 -55 -232 -1 -21 -4 -41 -8 -44 -9 -9 -9 -309 0 -318 4 -3 8 -30 10 -59 5
-96 8 -117 17 -117 4 0 6 -10 4 -23 -2 -13 1 -28 8 -35 7 -6 11 -23 8 -37 -2
-14 0 -25 6 -25 5 0 9 -3 8 -7 0 -5 1 -15 5 -23 4 -12 13 -44 22 -80 4 -18 70
-181 83 -205 9 -16 15 -34 14 -38 -1 -4 8 -27 21 -50 13 -23 22 -48 20 -54 -3
-7 1 -13 7 -13 7 0 10 -7 7 -15 -4 -8 -2 -17 3 -20 13 -8 13 -92 1 -100 -12
-7 -8 -52 5 -65 7 -7 18 -3 32 10 11 11 25 20 30 20 5 0 35 25 67 55 59 57 75
65 75 41 0 -8 6 -16 14 -19 7 -3 16 -18 20 -32 4 -15 12 -33 19 -41 31 -35 42
-49 41 -54 -2 -9 19 -50 26 -50 7 0 35 -71 32 -82 -1 -5 3 -8 9 -8 6 0 9 -7 5
-15 -3 -8 -1 -15 5 -15 6 0 8 -4 4 -9 -3 -5 -1 -12 4 -15 5 -4 8 -20 6 -36 -2
-17 0 -30 5 -30 9 0 6 -135 -3 -175 -10 -41 -49 -161 -58 -178 -5 -10 -23 -42
-39 -71 -16 -30 -27 -56 -24 -59 3 -2 -9 -16 -25 -30 -16 -13 -28 -27 -25 -29
2 -3 -29 -39 -71 -80 -41 -41 -75 -80 -75 -86 0 -7 -4 -12 -9 -12 -10 0 -28
-41 -38 -85 -10 -47 -4 -132 12 -170 11 -24 31 -46 37 -39 3 2 11 -2 18 -11 8
-9 29 -15 56 -15 l44 0 1 -42 c0 -24 0 -73 0 -110 -1 -38 2 -68 7 -68 4 0 7
-35 8 -78 1 -42 7 -90 14 -107 7 -16 14 -33 15 -37 2 -5 4 -11 5 -15 1 -5 2
-11 1 -15 0 -5 3 -8 9 -8 16 0 12 -46 -5 -60 -8 -7 -15 -18 -15 -24 0 -7 -9
-29 -20 -51 -11 -21 -18 -41 -15 -43 3 -3 0 -11 -6 -18 -6 -8 -11 -28 -11 -46
0 -39 39 -148 53 -148 5 0 8 -4 7 -8 -4 -11 94 -108 104 -104 5 1 11 -5 14
-13 4 -8 12 -15 19 -15 7 0 32 -20 56 -45 38 -40 45 -43 53 -27 6 9 11 20 12
25 1 4 3 10 4 15 6 16 8 29 9 79 1 41 4 51 16 47 8 -3 20 -2 27 3 7 4 31 8 53
9 23 0 47 4 54 8 7 4 15 5 18 2 3 -3 12 -1 20 5 7 6 13 9 13 6 0 -3 15 9 33
26 19 19 29 37 25 43 -4 6 0 19 10 30 9 10 18 28 19 39 7 86 13 128 17 132 8
9 -30 76 -56 99 -12 11 -35 25 -50 31 -22 10 -27 9 -32 -3 -3 -9 -3 -21 1 -27
5 -7 8 -21 8 -32 0 -11 4 -26 8 -32 5 -8 4 -13 -2 -13 -6 0 -11 -7 -11 -15 0
-9 -11 -21 -25 -27 -14 -6 -25 -15 -25 -20 0 -5 -4 -7 -9 -3 -5 3 -12 2 -15
-3 -7 -12 -104 -13 -112 -1 -3 5 -9 7 -14 4 -5 -3 -12 4 -15 15 -4 12 -12 19
-18 17 -11 -3 -33 16 -55 49 -23 36 -24 42 -3 66 36 40 45 52 86 113 46 70 47
72 48 148 0 31 3 57 7 57 4 0 10 31 12 70 2 38 8 74 14 80 5 5 39 10 74 12 67
2 87 12 105 53 4 11 9 24 9 28 1 5 8 14 17 20 9 7 19 29 23 50 6 35 25 52 27
25 1 -14 4 -34 15 -88 4 -19 8 -44 10 -55 1 -11 17 -85 35 -165 17 -80 33
-152 34 -160 1 -8 5 -22 8 -30 3 -8 11 -37 17 -65 39 -155 168 -576 200 -650
5 -11 34 -85 66 -165 99 -250 249 -561 355 -733 16 -26 29 -50 29 -53 0 -3 11
-22 25 -42 102 -151 195 -294 195 -302 0 -4 3 -10 8 -12 4 -2 45 -52 92 -113
46 -60 94 -121 106 -135 12 -14 41 -47 64 -75 154 -183 240 -276 510 -546 277
-277 472 -458 685 -634 33 -28 66 -56 74 -63 8 -7 46 -39 85 -70 39 -31 76
-61 83 -67 7 -5 18 -15 25 -20 7 -6 42 -33 78 -61 95 -75 208 -154 234 -163
16 -7 36 -2 76 19 102 51 459 261 505 297 6 4 39 28 75 52 90 61 154 105 160
111 3 3 39 31 81 62 85 63 290 230 359 292 85 77 416 411 481 485 35 41 73 84
84 97 32 36 46 53 120 149 38 50 72 92 75 95 32 30 255 363 362 540 118 196
319 583 342 658 4 12 12 19 18 16 6 -4 8 -2 4 4 -3 6 6 37 21 69 15 32 28 63
29 68 1 6 31 84 67 175 35 91 90 246 122 345 31 99 60 187 63 195 3 8 6 20 7
26 2 6 11 38 20 70 20 66 33 117 41 154 3 14 11 50 19 80 18 69 63 278 71 328
4 20 7 42 8 47 2 6 6 31 10 56 11 65 21 79 40 54 8 -11 18 -32 21 -47 8 -32
39 -70 50 -60 5 4 5 2 1 -5 -6 -12 20 -78 39 -99 28 -30 63 -42 110 -40 33 2
55 -2 63 -10 10 -11 10 -14 0 -14 -9 0 -9 -3 -1 -11 7 -7 8 -21 3 -39 -5 -16
-5 -31 -2 -35 8 -7 12 -29 16 -85 2 -25 4 -45 5 -45 2 0 4 -10 7 -23 6 -32 49
-116 68 -131 9 -8 16 -19 16 -25 0 -6 9 -17 20 -24 11 -7 20 -19 20 -27 0 -8
8 -18 18 -24 16 -9 16 -11 -3 -30 -11 -11 -35 -36 -54 -55 -47 -48 -106 -68
-154 -51 -20 7 -37 10 -37 6 0 -3 -5 2 -11 12 -5 9 -17 17 -25 17 -8 0 -13 4
-9 9 3 6 -4 15 -16 22 -17 9 -19 13 -8 20 8 5 10 9 5 9 -5 0 -4 6 1 13 5 6 9
21 9 32 -1 11 3 23 9 27 6 5 5 12 -2 19 -10 10 -20 9 -48 -4 -19 -9 -35 -21
-35 -27 0 -5 -5 -9 -12 -7 -7 1 -12 -4 -13 -11 0 -7 -5 -16 -11 -20 -11 -7
-27 -44 -29 -67 -1 -5 2 -23 7 -39 4 -16 10 -47 14 -70 3 -22 9 -45 12 -51 4
-5 7 -15 8 -22 4 -28 47 -73 79 -84 19 -7 35 -17 35 -22 0 -4 4 -5 10 -2 9 6
85 9 105 5 6 -1 17 -3 25 -4 11 -1 15 -16 16 -64 2 -75 19 -122 45 -122 11 0
18 4 17 8 -3 9 53 72 64 72 20 0 145 115 140 128 -2 7 1 12 7 12 13 0 35 48
32 68 -1 6 2 12 8 12 5 0 9 31 9 70 0 38 -5 70 -9 70 -5 0 -8 3 -7 8 0 4 -7
25 -17 47 -10 22 -18 43 -17 47 1 5 -2 8 -8 8 -5 0 -10 7 -10 15 0 8 -5 15
-11 15 -6 0 -1 13 9 28 28 39 54 136 55 204 0 32 4 58 8 58 4 0 7 37 7 83 0
155 0 149 21 135 16 -10 26 -9 48 2 64 32 81 50 93 97 18 66 22 103 9 103 -5
0 -9 6 -8 13 1 6 -1 21 -5 32 -5 11 -10 27 -14 35 -3 8 -4 18 -4 22 1 5 -2 8
-8 8 -5 0 -10 5 -10 12 0 6 -29 40 -65 76 -36 35 -65 66 -65 68 0 7 -42 65
-61 85 -10 9 -23 33 -30 53 -7 20 -17 36 -22 36 -4 0 -6 4 -3 9 3 4 -1 17 -9
27 -8 10 -15 27 -15 36 0 9 -4 18 -9 20 -5 2 -11 17 -14 35 -3 17 -9 38 -13
45 -13 20 -16 46 -19 158 -2 63 1 110 7 117 6 7 8 13 5 13 -4 0 2 20 13 44 10
24 16 46 14 49 -2 2 2 10 11 17 8 7 15 18 15 25 0 7 7 18 15 25 8 7 15 21 15
31 0 10 6 22 14 26 7 4 23 30 35 58 25 57 47 84 66 81 8 -1 40 -29 72 -61 32
-33 60 -59 63 -59 3 1 16 -3 29 -8 29 -11 45 7 30 33 -12 23 -12 126 0 134 6
3 8 14 6 25 -2 11 1 20 6 20 6 0 8 4 5 9 -3 5 3 20 15 34 11 15 19 28 18 29
-3 5 23 82 31 93 5 6 9 13 9 18 0 4 10 29 21 55 12 26 24 62 27 80 3 17 9 32
13 32 4 0 11 17 15 37 4 21 10 42 13 48 3 5 7 16 8 25 1 8 5 26 8 40 20 77 28
118 28 143 0 15 4 27 8 27 9 0 8 -6 16 208 3 100 2 182 -3 182 -4 0 -9 15 -10
33 -2 41 -9 83 -18 96 -3 6 0 11 7 11 9 0 9 3 2 8 -12 8 -36 72 -27 72 3 0 0
7 -7 15 -7 9 -10 18 -7 22 3 3 0 18 -9 34 -8 16 -12 29 -8 29 4 0 1 6 -5 14
-12 14 -46 116 -43 129 1 4 -2 7 -6 7 -4 0 -16 23 -27 50 -11 28 -23 50 -28
50 -4 0 -5 5 -2 10 4 6 -3 26 -15 45 -13 21 -23 57 -26 92 -6 84 -10 116 -17
133 -4 8 -8 26 -11 40 -5 29 -37 102 -49 111 -5 3 -8 9 -8 13 2 17 -1 24 -19
44 -12 12 -18 22 -14 22 3 0 -10 20 -30 44 -20 24 -36 48 -36 53 -1 4 -24 28
-52 53 -28 25 -67 60 -87 78 l-36 33 28 25 c15 13 37 24 48 24 10 0 19 5 19
11 0 5 5 7 10 4 6 -3 10 1 10 10 0 11 -5 15 -15 11 -8 -3 -15 -2 -15 3 0 5
-20 12 -45 15 -25 4 -45 11 -45 16 0 4 -29 14 -65 21 -36 7 -65 16 -65 21 0 4
-6 8 -14 8 -8 0 -21 6 -28 13 -7 7 -17 15 -23 16 -32 10 -45 15 -95 38 -30 14
-59 26 -65 28 -5 1 -18 5 -27 9 -9 4 -21 5 -27 2 -5 -4 -12 -2 -16 4 -3 5 -23
10 -44 10 -20 0 -42 5 -48 11 -7 7 -13 7 -17 1 -4 -7 -17 -7 -36 -2 -18 5 -32
5 -36 -1 -3 -6 -13 -9 -22 -7 -10 1 -22 -1 -28 -4 -12 -8 -58 -19 -96 -22 -31
-3 -32 0 -29 97 1 26 -3 47 -8 47 -9 0 -140 -78 -151 -90 -3 -3 -23 -14 -45
-25 -22 -11 -43 -24 -47 -30 -4 -5 -8 -6 -8 -1 0 5 -9 1 -20 -9 -12 -10 -28
-20 -38 -21 -37 -5 -65 -14 -107 -35 -47 -24 -54 -23 -60 8 -2 10 -4 19 -5 21
-2 1 -3 5 -4 10 -14 62 -19 89 -17 100 1 6 -3 12 -9 12 -6 0 -9 4 -5 9 3 5 1
12 -4 15 -13 8 -22 83 -15 123 4 21 14 37 23 40 10 2 28 25 42 51 13 26 30 54
37 63 13 17 21 144 9 155 -4 4 -7 14 -7 22 0 30 -57 69 -92 63 -5 0 -8 4 -8
10 0 6 -12 10 -27 9 -49 -4 -53 -1 -53 35 0 19 -4 35 -10 35 -5 0 -10 6 -10
13 0 8 -15 27 -32 44 -47 43 -62 63 -76 101 -6 17 -17 46 -23 62 -11 28 -33
37 -35 14 -3 -23 -27 -74 -36 -74 -5 0 -7 -4 -4 -8 2 -4 -11 -24 -31 -43 -92
-89 -122 -122 -117 -130 3 -5 0 -9 -6 -9 -5 0 -9 -12 -8 -27 3 -52 -10 -72
-45 -69 -18 2 -45 -2 -61 -7 -37 -13 -116 -92 -116 -117 0 -10 -4 -21 -9 -24
-11 -7 4 -89 27 -138 12 -27 23 -38 40 -38 13 0 22 6 22 15 0 8 6 15 13 15 7
0 23 9 35 20 12 11 26 20 32 20 5 0 10 5 10 11 0 5 4 8 9 4 5 -3 12 -1 16 5 8
13 45 13 45 0 0 -5 7 -10 15 -10 8 0 15 -3 15 -7 0 -5 12 -21 26 -38 28 -33
64 -105 64 -129 0 -8 4 -17 9 -21 6 -3 6 -18 0 -37 -11 -38 -29 -59 -36 -40
-3 6 -11 12 -19 12 -8 0 -17 6 -20 13 -3 8 -10 14 -17 15 -7 0 -30 7 -52 15
-22 8 -44 12 -50 9 -14 -9 -37 -9 -57 0 -9 4 -18 5 -20 0 -2 -4 -25 -18 -51
-32 -27 -14 -55 -33 -62 -44 -12 -17 -9 -24 38 -68 29 -28 51 -54 49 -59 -1
-5 3 -9 10 -9 6 0 9 -3 5 -6 -3 -4 4 -25 15 -48 41 -79 24 -162 -47 -224 -19
-17 -35 -37 -35 -44 0 -7 -24 -29 -52 -48 -42 -28 -62 -35 -105 -36 -29 -1
-53 0 -53 2 0 1 11 24 25 50 14 25 22 50 19 55 -3 5 -1 9 5 9 10 0 23 45 26
95 2 31 -24 105 -37 105 -5 0 -8 6 -8 13 0 6 -28 31 -62 53 -59 40 -64 41 -86
26 -18 -12 -23 -22 -20 -44 3 -16 1 -31 -4 -34 -4 -3 -8 -14 -8 -25 0 -11 -6
-22 -14 -25 -8 -3 -17 -13 -20 -22 -14 -38 -36 -65 -67 -85 -34 -20 -47 -25
-81 -29 -10 -1 -18 -5 -18 -9 0 -3 -11 -4 -25 -1 -14 2 -25 0 -25 -4 0 -19
-172 2 -199 24 -11 10 -32 25 -45 35 -14 9 -31 28 -38 41 -7 13 -24 43 -37 67
l-23 43 23 21 c13 12 25 25 26 31 4 19 28 79 34 84 6 6 4 144 -3 174 -3 10
-12 24 -21 31 -9 7 -14 14 -11 17 3 3 -8 15 -23 27 -15 11 -33 25 -40 31 -7 5
-17 10 -23 10 -5 0 -10 4 -10 8 0 16 -76 48 -121 51 -35 2 -48 -2 -52 -13 -4
-9 -11 -16 -17 -16 -6 0 -18 -7 -27 -15 -8 -9 -28 -19 -44 -22 -16 -3 -29 -10
-29 -16 0 -6 -3 -7 -7 -4 -8 9 -63 -42 -63 -59 0 -7 -5 -14 -11 -16 -6 -2 -15
-33 -20 -68 -13 -91 -13 -102 -6 -130 4 -14 8 -47 11 -75 2 -27 6 -57 8 -65
10 -39 20 -60 28 -60 4 0 7 -8 6 -17 -2 -10 5 -24 15 -31 11 -7 19 -17 19 -23
0 -5 11 -27 25 -49 14 -22 22 -40 19 -40 -4 0 -1 -6 5 -14 15 -17 24 -133 12
-141 -5 -3 -7 -13 -5 -23 7 -27 -36 -68 -68 -64 -39 5 -50 24 -49 92 0 48 -4
65 -22 85 -25 29 -79 36 -116 16 -21 -12 -26 -11 -36 3 -7 8 -15 13 -19 9 -3
-4 -1 8 5 27 7 18 20 41 31 52 19 19 25 58 8 58 -5 0 -7 6 -4 14 3 8 1 24 -5
35 -9 15 -6 32 10 73 11 29 23 64 25 77 3 13 9 32 15 43 5 10 6 18 1 18 -11 0
-9 53 3 66 6 6 10 69 9 147 0 75 3 137 7 137 4 0 8 15 7 33 0 17 3 52 6 77 4
25 8 51 8 58 1 6 5 12 9 12 4 0 6 9 4 19 -2 12 12 36 38 63 38 41 46 45 86 43
38 -2 50 -7 78 -40 18 -21 30 -42 27 -46 -11 -19 32 -8 46 11 8 11 19 20 25
20 14 0 79 68 96 100 15 30 20 130 7 147 -5 7 -7 17 -4 22 4 5 0 13 -8 18 -8
4 -16 15 -18 23 -9 41 -140 150 -170 142 -5 -1 -8 3 -8 9 0 5 -8 9 -17 8 -10
-2 -29 1 -43 6 -14 4 -43 8 -65 9 -37 1 -40 3 -41 31 0 17 -8 45 -17 63 -10
17 -15 32 -11 32 4 0 1 6 -5 13 -6 8 -8 17 -4 20 3 4 1 7 -5 7 -7 0 -12 9 -12
20 0 11 -4 20 -10 20 -5 0 -10 4 -10 10 0 11 -62 103 -72 108 -4 2 -22 33 -39
68 -18 36 -36 67 -41 70 -4 3 -8 14 -8 25 0 10 -4 19 -10 19 -5 0 -9 3 -8 8 1
4 -2 22 -6 40 -8 35 -36 44 -36 12z m60 -531 c0 -15 -18 -19 -23 -6 -3 8 1 14
9 14 8 0 14 -4 14 -8z m-160 -129 c0 -5 -2 -10 -4 -10 -3 0 -8 5 -11 10 -3 6
-1 10 4 10 6 0 11 -4 11 -10z m-35 -10 c-3 -5 -11 -10 -16 -10 -6 0 -7 5 -4
10 3 6 11 10 16 10 6 0 7 -4 4 -10z m205 -306 c0 -8 -19 -13 -24 -6 -3 5 1 9
9 9 8 0 15 -2 15 -3z m-181 -77 c8 -10 7 -14 -4 -14 -8 0 -15 6 -15 14 0 7 2
13 4 13 2 0 9 -6 15 -13z m2946 -577 c3 -6 -1 -7 -9 -4 -18 7 -21 14 -7 14 6
0 13 -4 16 -10z m-10 -110 c-3 -5 -12 -10 -18 -10 -7 0 -6 4 3 10 19 12 23 12
15 0z m135 -130 c3 -1 21 -2 40 -2 67 2 174 -34 308 -101 45 -23 82 -45 82
-49 0 -5 5 -8 11 -8 29 0 178 -123 162 -133 -12 -7 -82 29 -125 63 -20 17 -40
30 -44 30 -4 0 -15 6 -23 14 -9 8 -23 16 -31 18 -8 2 -18 6 -21 11 -3 4 -15 9
-27 12 -11 2 -30 9 -42 15 -12 6 -31 13 -42 15 -12 3 -24 8 -27 12 -3 5 -10 8
-16 8 -5 0 -46 9 -90 19 -116 28 -165 37 -215 40 -14 0 -31 5 -39 10 -8 5 -16
4 -21 -4 -5 -9 -9 -9 -14 -1 -4 6 -11 9 -16 6 -5 -3 -28 -8 -52 -11 -24 -3
-54 -7 -68 -9 -14 -2 -57 -12 -96 -23 -72 -20 -118 -16 -75 7 11 7 21 9 21 6
0 -4 6 -3 13 2 6 4 17 8 22 10 6 1 42 9 80 18 39 9 121 18 184 21 63 2 116 6
118 8 4 4 29 1 43 -4z m-235 -310 c0 -1 31 -4 69 -6 39 -3 76 -10 83 -16 7 -6
13 -8 13 -4 0 11 112 -53 153 -87 21 -18 49 -41 62 -52 14 -11 26 -31 27 -45
l3 -25 -740 -2 -740 -2 38 20 c20 11 37 24 37 30 0 6 5 7 12 3 6 -4 16 -1 22
7 6 8 34 25 61 39 28 14 52 27 55 30 6 6 147 54 195 66 40 10 166 13 185 4 8
-4 46 -17 84 -29 77 -24 155 -69 156 -89 0 -7 5 -10 10 -7 6 3 10 0 10 -8 0
-22 23 -27 45 -8 28 22 57 70 50 80 -3 5 0 11 5 13 10 3 17 35 19 79 1 12 11
15 44 13 23 -1 42 -2 42 -4z m286 -7 c13 -16 12 -17 -3 -4 -10 7 -18 15 -18
17 0 8 8 3 21 -13z m-5554 -40 c2 -39 38 -115 69 -144 l25 -23 37 42 c21 23
43 42 49 42 6 0 13 4 15 9 2 5 12 11 23 13 11 1 26 9 33 16 7 6 20 13 28 13
16 2 33 5 37 9 1 1 9 3 17 5 8 2 29 8 45 13 39 11 183 6 199 -7 7 -6 16 -8 19
-4 4 3 13 0 22 -7 8 -7 15 -9 15 -4 0 4 5 3 11 -3 6 -6 18 -9 25 -6 8 3 14 1
14 -5 0 -5 12 -13 28 -17 15 -3 58 -24 95 -46 38 -21 72 -39 77 -39 5 0 10 -4
12 -8 2 -4 19 -15 38 -24 33 -16 -4 -17 -694 -17 -401 0 -733 2 -737 5 -17 10
15 51 81 102 38 28 73 52 79 52 6 0 11 4 11 9 0 7 31 20 48 21 1 0 15 5 30 13
15 7 36 12 47 12 11 -1 25 2 30 5 6 4 34 7 63 8 30 0 56 3 59 5 3 3 15 2 26
-2 15 -6 22 -18 24 -38z m-1266 -86 c-10 -9 -11 -8 -5 6 3 10 9 15 12 12 3 -3
0 -11 -7 -18z m4612 -27 c8 0 77 -68 77 -76 0 -2 -52 -4 -115 -4 -70 0 -115 4
-115 10 0 6 3 9 8 8 11 -4 62 44 56 54 -3 4 0 8 5 8 6 0 11 6 11 13 0 7 5 18
12 25 9 9 16 5 32 -13 12 -14 25 -25 29 -25z m-1435 3 c6 -15 12 -33 12 -40 0
-7 7 -13 15 -13 8 0 15 -5 15 -11 0 -5 4 -8 9 -4 5 3 12 1 16 -5 4 -6 -32 -10
-104 -10 -61 0 -111 3 -110 8 1 10 112 101 124 101 6 1 16 -11 23 -26z m2266
-6 c-21 -12 -30 -1 -14 18 10 13 15 13 21 3 5 -8 2 -16 -7 -21z m-1413 -17
c13 -22 26 -40 31 -40 4 0 8 -4 8 -9 0 -16 -98 -12 -104 4 -3 8 -1 17 4 20 6
4 10 14 10 24 0 14 17 41 26 41 2 0 13 -18 25 -40z m-300 3 c24 -61 22 -63
-34 -62 -29 0 -46 3 -39 6 6 2 12 10 12 16 0 10 40 66 48 67 1 0 7 -12 13 -27z
m536 -48 c0 -11 -11 -15 -41 -15 -29 0 -37 3 -26 9 8 6 18 7 22 5 4 -3 8 0 8
5 0 6 8 11 18 11 10 0 19 -7 19 -15z m-4312 -35 c3 -5 1 -10 -4 -10 -6 0 -11
5 -11 10 0 6 2 10 4 10 3 0 8 -4 11 -10z m7226 -432 c28 -18 48 -81 48 -150 0
-38 -5 -53 -25 -74 -15 -14 -32 -23 -40 -20 -7 3 -16 0 -20 -5 -6 -11 -41 30
-36 44 1 4 -2 7 -7 7 -9 0 -7 43 4 59 3 6 2 11 -3 11 -5 0 -10 29 -11 64 -2
50 2 66 14 74 22 12 48 9 76 -10z m-6620 -5 c3 -39 1 -244 -3 -248 -9 -10 -58
20 -65 40 -10 30 -11 87 -2 113 5 12 11 35 14 50 6 33 53 71 56 45z m6684
-667 c17 -2 35 -5 40 -5 6 -1 3 -7 -6 -14 -9 -7 -21 -22 -28 -34 -6 -13 -16
-23 -21 -23 -6 0 -22 -13 -37 -28 -43 -45 -76 -63 -88 -49 -12 14 -15 57 -4
57 4 0 4 12 0 28 -6 21 -7 68 -2 79 1 2 109 -6 146 -11z m-6685 -5 c8 -2 6
-125 -2 -131 -4 -3 -18 4 -30 15 -13 11 -26 19 -30 17 -5 -1 -8 1 -8 6 0 4
-13 22 -30 40 -36 40 -38 54 -6 46 14 -3 32 -2 41 4 15 8 41 9 65 3z m6897
-416 c0 -8 -4 -15 -9 -15 -4 0 -8 -9 -8 -19 0 -11 -4 -21 -8 -23 -4 -1 -28
-32 -52 -68 -25 -36 -51 -69 -57 -73 -7 -4 -13 -15 -13 -23 0 -8 -7 -17 -15
-20 -8 -4 -15 -12 -15 -20 0 -8 -3 -14 -7 -14 -5 0 -21 -23 -38 -50 -16 -28
-33 -50 -38 -50 -4 0 -5 -4 -2 -10 3 -5 -1 -10 -9 -10 -10 0 -13 -6 -9 -17 4
-10 2 -14 -5 -9 -6 3 -13 -2 -17 -13 -3 -11 -12 -18 -19 -15 -12 5 -11 18 8
129 1 11 8 31 13 45 6 14 10 27 10 30 -2 12 162 181 184 188 5 2 9 10 9 17 0
8 10 17 22 21 12 3 28 13 36 20 18 18 39 18 39 -1z m-7033 -120 c85 -85 128
-136 132 -160 1 -5 6 -28 11 -50 4 -22 8 -56 8 -75 0 -19 5 -38 10 -42 6 -4 0
-8 -12 -8 -16 0 -23 6 -23 19 0 10 -7 21 -15 25 -8 3 -15 12 -15 21 0 8 -5 15
-12 15 -6 0 -8 3 -5 7 4 3 1 11 -7 17 -15 12 -126 163 -126 171 0 3 -8 13 -17
23 -32 33 -53 62 -46 62 3 0 -1 8 -9 18 -24 27 -40 61 -33 72 11 18 64 -21
159 -115z m-193 -1188 c-10 -9 -11 -8 -5 6 3 10 9 15 12 12 3 -3 0 -11 -7 -18z
m394 -296 c3 -5 2 -12 -3 -15 -5 -3 -9 1 -9 9 0 17 3 19 12 6z"/>
</g>
</svg>
